<?xml version="1.0" standalone="no"?>
<!DOCTYPE svg PUBLIC "-//W3C//DTD SVG 20010904//EN"
 "http://www.w3.org/TR/2001/REC-SVG-20010904/DTD/svg10.dtd">
<svg version="1.0" xmlns="http://www.w3.org/2000/svg"
 width="2060.000000pt" height="600.000000pt" viewBox="0 0 2060.000000 600.000000"
 preserveAspectRatio="xMidYMid meet">
<metadata>
Created by potrace 1.16, written by Peter Selinger 2001-2019
</metadata>
<g transform="translate(0.000000,600.000000) scale(0.100000,-0.100000)"
fill="#000000" stroke="none">
<path d="M11905 4064 c-174 -23 -185 -25 -185 -35 0 -5 26 -22 58 -37 31 -15
59 -29 62 -32 3 -3 50 -28 106 -56 78 -40 103 -48 110 -38 6 8 54 18 127 25
l117 13 56 -28 c31 -15 57 -26 58 -24 1 2 9 26 18 54 14 46 14 52 -1 61 -9 6
-30 7 -53 2 -20 -5 -70 -10 -110 -11 l-73 -3 -3 32 c-3 25 -10 35 -40 48 -20
10 -50 23 -66 31 -34 16 -47 16 -181 -2z"/>
<path d="M11325 3995 c-5 -2 -56 -9 -112 -15 -57 -7 -103 -15 -103 -19 1 -8
192 -101 208 -101 6 0 26 -9 44 -20 18 -11 36 -20 41 -20 4 0 7 41 7 90 l0 90
-37 -1 c-21 0 -42 -2 -48 -4z"/>
<path d="M10845 3939 c-77 -10 -203 -25 -280 -34 -142 -17 -189 -33 -183 -62
7 -35 31 -37 212 -19 199 21 224 18 336 -40 l68 -35 133 16 c181 22 179 21
178 48 0 12 -3 17 -5 10 -3 -7 -12 -9 -21 -6 -12 5 -11 9 8 19 22 11 20 12
-18 7 -29 -4 -43 -2 -43 6 0 6 -5 11 -11 11 -16 0 -143 62 -151 74 -4 6 -8 8
-8 4 0 -4 -16 0 -35 8 -19 7 -36 13 -37 13 -2 -1 -66 -10 -143 -20z"/>
<path d="M12851 3890 c-201 -23 -213 -26 -209 -48 4 -19 21 -19 238 -11 l105
4 105 -54 104 -53 85 7 c120 9 143 15 128 29 -7 6 -70 41 -142 76 -155 76
-168 78 -414 50z"/>
<path d="M9740 3840 l-5 -35 -105 -12 c-192 -22 -191 -22 -180 -43 5 -10 23
-21 40 -25 16 -4 30 -10 30 -13 0 -8 49 -32 66 -32 7 0 14 -3 16 -7 4 -11 128
-73 144 -73 7 0 15 -6 17 -12 3 -7 5 48 6 122 0 79 -4 127 -9 115 -6 -17 -8
-14 -12 15 l-4 35 -4 -35z"/>
<path d="M11734 3525 l1 -320 -115 -11 c-63 -7 -128 -13 -145 -13 l-30 -2 40
-21 c38 -20 46 -20 170 -10 90 7 134 7 143 0 20 -17 204 -108 217 -108 7 0 22
25 33 55 17 45 21 70 17 128 -4 58 -14 340 -15 420 0 10 -4 15 -10 12 -6 -4
-10 6 -10 23 0 19 -5 29 -15 29 -8 0 -15 -4 -15 -9 0 -5 -9 -4 -19 2 -11 6
-45 7 -80 4 l-61 -7 0 32 c0 31 -1 31 -49 31 l-50 0 -4 43 c-2 23 -3 -102 -3
-278z"/>
<path d="M9036 3724 c-59 -7 -113 -15 -120 -17 -6 -2 49 -34 122 -70 l132 -66
0 84 c0 62 -3 85 -12 84 -7 -1 -62 -8 -122 -15z"/>
<path d="M8455 3655 c-5 -2 -36 -6 -68 -10 l-58 -7 2 -78 c1 -72 4 -79 23 -83
20 -4 20 -4 -1 -6 -13 0 -23 -6 -23 -12 0 -6 8 -8 18 -5 9 2 49 7 87 11 89 8
122 21 140 56 37 70 0 140 -72 138 -21 0 -42 -2 -48 -4z"/>
<path d="M8856 3565 c-15 -109 -53 -194 -129 -288 -27 -34 -29 -67 -3 -67 6 0
74 -31 150 -70 111 -55 143 -67 158 -59 24 13 80 91 112 156 23 46 26 63 25
160 -1 59 -4 99 -6 89 -4 -15 -7 -16 -14 -5 -7 12 -9 12 -9 -1 0 -9 -3 -11 -8
-5 -8 12 -72 45 -93 49 -8 1 -25 9 -39 18 -14 9 -38 19 -54 22 -16 3 -37 13
-47 22 -15 14 -19 14 -20 3 0 -8 -4 -5 -8 6 -6 15 -10 8 -15 -30z"/>
<path d="M12751 3591 l-145 -16 50 -23 c47 -22 56 -23 147 -14 89 9 127 21
127 43 0 22 -44 24 -179 10z"/>
<path d="M11061 3520 c-5 -160 -93 -311 -218 -373 -63 -32 -69 -32 -391 -63
-259 -24 -310 -33 -296 -55 7 -12 0 -11 -29 2 -27 12 -30 22 -52 169 l-13 85
5 -105 c2 -58 6 -111 8 -117 3 -7 1 -12 -3 -12 -4 1 -10 0 -14 -1 -17 -5 -27
-7 -135 -14 -62 -5 -113 -11 -113 -15 0 -4 15 -15 34 -24 26 -12 51 -15 103
-10 87 7 168 -14 282 -72 71 -36 93 -43 124 -38 38 5 51 28 22 39 -8 4 -15 12
-15 19 0 14 49 7 87 -13 12 -7 24 -12 27 -12 3 0 6 27 6 60 0 39 4 62 13 65 6
3 132 16 278 30 294 28 328 26 421 -21 l52 -27 37 43 c68 79 93 141 96 244 2
62 0 85 -6 71 -8 -18 -10 -18 -10 -2 -1 10 -12 22 -26 27 -14 5 -28 17 -31 25
-4 8 -14 15 -23 15 -9 0 -34 9 -56 19 -42 21 -71 32 -94 37 -8 1 -18 9 -22 16
-7 10 -9 10 -10 -2 0 -10 -3 -8 -9 5 -6 14 -9 16 -10 5 -2 -8 -6 -1 -10 15 -7
28 -8 26 -9 -15z"/>
<path d="M13136 3493 c-24 -58 -77 -118 -129 -144 -48 -25 -100 -34 -325 -55
-97 -9 -179 -18 -181 -19 -2 -2 70 -40 159 -85 l163 -81 176 16 c310 29 341
37 408 107 33 34 72 110 73 140 0 10 -16 24 -40 34 -22 10 -40 21 -40 26 0 4
-9 8 -20 8 -11 0 -20 4 -20 9 0 5 -18 12 -40 16 -22 4 -40 10 -40 15 0 5 -18
11 -40 15 -22 4 -40 11 -40 16 0 6 -4 7 -10 4 -5 -3 -10 0 -10 7 0 10 -2 10
-9 -1 -7 -11 -10 -11 -12 3 -3 10 -12 -3 -23 -31z"/>
<path d="M10540 3500 c-85 -10 -175 -15 -200 -12 -25 2 -43 3 -40 0 12 -13
178 -78 198 -78 12 0 67 5 123 12 75 8 107 16 121 30 10 10 18 22 18 27 0 16
-31 41 -48 40 -9 -1 -87 -10 -172 -19z"/>
<path d="M9458 3221 c-5 -35 -8 -101 -8 -147 l0 -83 -52 -6 c-29 -3 -87 -9
-128 -13 l-75 -7 39 -18 c32 -16 52 -18 127 -12 72 6 89 4 89 -6 2 -53 -2
-294 -5 -297 -1 -2 -52 -8 -112 -13 -59 -5 -123 -12 -140 -15 l-33 -5 0 -388
0 -388 -31 -7 c-17 -3 -57 -6 -89 -6 -32 0 -72 -3 -90 -6 -30 -7 -23 -12 125
-85 172 -86 181 -88 348 -72 l67 6 0 262 c0 222 -3 269 -17 306 -27 72 -22
262 9 366 27 87 62 154 108 207 l30 33 -73 33 c-81 37 -82 38 -75 45 3 3 39
-11 82 -31 l76 -36 38 34 c20 18 53 43 73 56 l36 22 -4 108 c-3 59 -7 109 -9
111 -2 2 -4 -32 -4 -77 0 -79 -1 -82 -23 -82 -13 0 -32 7 -43 15 -18 14 -18
14 6 15 15 0 20 4 15 9 -12 11 -91 33 -120 32 -11 0 -34 8 -52 19 -29 17 -32
17 -36 2 -3 -9 -6 8 -7 38 l-3 55 -11 -65 -11 -65 -5 110 c-5 109 -5 110 -12
46z"/>
<path d="M12289 2857 l-171 -342 7 -261 7 -261 -84 -6 c-45 -4 -111 -7 -145
-7 -35 0 -63 -3 -63 -8 0 -4 71 -43 158 -86 l158 -79 150 9 149 9 0 265 0 265
169 338 c92 186 167 340 165 342 -2 1 -77 39 -166 83 l-162 81 -172 -342z"/>
<path d="M8373 3153 l-43 -4 0 -134 0 -133 -97 -7 c-54 -3 -111 -10 -127 -16
-34 -10 -50 -3 -42 20 4 11 2 11 -9 -4 -13 -16 -36 -21 -143 -31 -70 -6 -130
-10 -133 -8 -3 2 -14 31 -24 65 -10 33 -24 63 -31 66 -12 4 -305 -25 -312 -31
-1 -2 -13 -34 -25 -72 l-22 -69 -104 -12 c-57 -7 -109 -14 -115 -16 -5 -2 64
-40 154 -85 l165 -81 95 10 c144 14 135 9 162 91 l23 73 65 6 c36 3 74 2 85
-2 11 -4 32 0 47 7 28 15 134 31 243 39 94 7 288 26 312 31 12 2 29 -3 37 -12
9 -8 16 -13 16 -9 0 3 10 -1 22 -9 32 -22 38 -20 38 14 0 30 1 30 53 30 62 0
276 26 285 34 3 3 -2 6 -12 6 -9 0 -27 6 -39 14 -19 12 -40 12 -152 0 -71 -7
-144 -15 -162 -18 -31 -4 -33 -2 -70 69 -20 41 -41 71 -47 68 -5 -3 -6 -1 -2
5 6 9 -39 116 -47 110 -1 -1 -21 -3 -44 -5z"/>
<path d="M8530 2686 l0 -134 -77 -6 c-268 -23 -420 -38 -436 -42 -13 -4 -17
-14 -15 -32 l3 -27 190 0 190 0 73 -44 c82 -49 71 -48 277 -28 l120 12 3 28
c2 20 8 27 18 23 11 -4 14 9 14 70 l0 76 -62 -6 c-35 -3 -98 -8 -140 -12 l-78
-6 0 111 0 111 -40 20 -40 20 0 -134z"/>
<path d="M11404 2804 c-7 -3 -9 -32 -6 -82 2 -43 -1 -103 -7 -134 -17 -79 -70
-184 -125 -245 l-46 -51 26 -39 c15 -21 24 -30 21 -20 -4 9 -5 17 -3 17 9 0
113 -54 138 -71 14 -11 36 -19 47 -19 12 0 21 -4 21 -8 0 -4 16 -15 36 -24
l35 -16 40 41 c90 94 136 194 146 317 4 59 2 90 -12 134 -20 64 -37 84 -30 34
3 -18 2 -26 -1 -18 -4 8 -11 18 -17 21 -6 4 -6 13 0 25 7 13 5 27 -4 44 -14
25 -14 24 -8 -9 5 -23 4 -31 -4 -27 -6 4 -11 16 -11 27 0 10 -4 19 -10 19 -14
0 -12 -16 5 -50 9 -17 11 -30 6 -30 -5 0 -12 6 -14 13 -4 9 -8 8 -17 -3 -8
-12 -9 -9 -4 13 5 22 3 27 -14 27 -11 0 -25 7 -32 15 -7 8 -17 15 -24 15 -6 0
-30 8 -53 18 -29 12 -46 26 -52 45 -6 15 -11 27 -13 26 -2 0 -8 -3 -14 -5z"/>
<path d="M10925 2753 c-22 -1 -64 -6 -92 -9 l-53 -5 0 -43 c0 -24 3 -71 6
-105 l7 -62 51 5 c28 3 82 8 119 12 54 4 73 11 92 30 30 30 39 63 31 110 -8
40 -54 75 -96 72 -14 -1 -43 -3 -65 -5z"/>
<path d="M9880 2654 c-122 -53 -182 -224 -122 -346 13 -27 28 -48 34 -48 6 0
3 12 -7 26 -22 34 -13 42 13 10 11 -15 28 -26 37 -26 9 0 29 -7 43 -15 15 -8
41 -20 57 -26 l30 -11 -30 -15 c-30 -14 -30 -14 18 -9 67 8 107 31 107 61 0
39 36 124 71 167 30 38 30 41 19 87 -29 122 -160 193 -270 145z"/>
<path d="M10447 2504 c6 -126 -13 -222 -66 -330 -94 -189 -262 -306 -446 -308
-38 -1 -86 2 -105 6 -50 10 244 -137 315 -157 131 -39 297 -3 407 87 26 21 54
38 62 38 9 0 66 -25 127 -56 l111 -55 107 6 c58 3 121 8 139 11 l33 5 -5 75
c-3 41 -3 74 0 74 2 0 66 -31 142 -69 l137 -68 165 9 c91 5 167 11 169 14 2 2
-2 12 -10 21 -8 10 -23 34 -33 53 -11 19 -22 37 -25 40 -3 3 -14 22 -24 43 -9
21 -22 35 -27 32 -5 -3 -7 0 -5 7 3 8 -3 23 -13 33 -10 11 -24 29 -30 40 -11
20 -11 19 -12 -2 0 -12 5 -25 10 -28 6 -3 10 -10 10 -15 0 -18 -50 38 -51 56
0 11 -3 13 -6 7 -7 -19 -26 -16 -53 9 -16 15 -25 18 -28 10 -6 -18 -27 -14
-48 9 -10 11 -26 18 -36 16 -10 -3 -15 -1 -12 4 8 14 -6 51 -19 46 -6 -2 -22
8 -35 22 l-24 26 20 -35 c48 -87 56 -99 63 -94 4 2 11 -1 15 -7 4 -8 3 -9 -4
-5 -18 11 -14 -8 6 -35 26 -35 46 -78 40 -85 -3 -3 -79 -10 -168 -15 -90 -5
-166 -12 -170 -14 -8 -5 -52 67 -130 209 l-43 78 -36 -6 c-20 -3 -45 -6 -55
-6 -18 0 -19 -7 -12 -144 l7 -144 -146 -7 c-80 -4 -148 -5 -151 -3 -2 3 -7
128 -10 279 -6 325 -9 367 -33 398 -18 23 -18 22 -14 -75z"/>
<path d="M8531 2340 c-1 -3 9 -33 21 -65 31 -84 30 -208 -1 -288 -32 -82 -95
-156 -162 -190 -51 -26 -66 -28 -309 -43 -140 -8 -256 -17 -258 -19 -2 -2 68
-40 156 -84 l160 -80 253 15 c166 9 270 20 301 30 63 20 141 92 173 159 26 52
27 59 23 195 -2 88 -7 143 -14 148 -6 4 -16 17 -23 29 -6 12 -17 21 -24 19 -6
-1 -9 -1 -4 1 13 8 7 25 -7 20 -16 -6 -96 31 -96 44 0 5 -14 9 -30 9 -19 0
-40 9 -55 24 -13 13 -26 22 -28 20 -9 -9 -55 19 -65 40 -6 11 -11 19 -11 16z"/>
<path d="M8120 2138 c-58 -5 -120 -7 -137 -5 -18 1 -33 2 -33 1 0 -2 35 -19
78 -39 l77 -37 98 7 c90 7 99 9 109 31 8 17 8 27 -2 39 -14 17 -31 17 -190 3z"/>
</g>
</svg>
